<svg width="12" height="12" viewBox="0 0 12 12" fill="none" xmlns="http://www.w3.org/2000/svg">
<g id="clarity:note-edit-solid" clip-path="url(#clip0_3635_3325)">
<path id="Vector" d="M11.0002 2.13298L9.76683 0.899648C9.66082 0.798573 9.51997 0.742188 9.3735 0.742188C9.22702 0.742187 9.08617 0.798573 8.98016 0.899648L7.8835 1.99965H2.00016C1.82335 1.99965 1.65378 2.06989 1.52876 2.19491C1.40373 2.31993 1.3335 2.4895 1.3335 2.66631V9.99965C1.3335 10.1765 1.40373 10.346 1.52876 10.4711C1.65378 10.5961 1.82335 10.6663 2.00016 10.6663H9.3335C9.51031 10.6663 9.67988 10.5961 9.8049 10.4711C9.92992 10.346 10.0002 10.1765 10.0002 9.99965V3.91965L11.0002 2.91965C11.1044 2.81528 11.1629 2.67381 11.1629 2.52631C11.1629 2.37882 11.1044 2.23735 11.0002 2.13298ZM6.27683 6.70965L4.88016 7.01965L5.2135 5.63631L8.39683 2.44631L9.4735 3.52298L6.27683 6.70965ZM9.8335 3.14298L8.75683 2.06631L9.3735 1.44965L10.4502 2.52631L9.8335 3.14298Z" fill="white"/>
</g>
<defs>
<clipPath id="clip0_3635_3325">
<rect width="12" height="12" fill="white"/>
</clipPath>
</defs>
</svg>
