<svg width="63" height="49" viewBox="0 0 63 49" fill="none" xmlns="http://www.w3.org/2000/svg">
<g id="et:upload" clip-path="url(#clip0_3635_3341)">
<path id="Vector" d="M50.937 19.982C50.2965 10.064 43.3995 0.5 30.75 0.5C19.1805 0.5 10.2585 9.0995 9.786 20.576C3.456 22.5455 0 29.3195 0 34.25C0 41.8415 6.309 48.5 13.5 48.5H23.25C23.4489 48.5 23.6397 48.421 23.7803 48.2803C23.921 48.1397 24 47.9489 24 47.75C24 47.5511 23.921 47.3603 23.7803 47.2197C23.6397 47.079 23.4489 47 23.25 47H13.5C7.107 47 1.5 41.042 1.5 34.25C1.5 29.6735 5.511 21.5 13.5 21.5H15.75C15.9489 21.5 16.1397 21.421 16.2803 21.2803C16.421 21.1397 16.5 20.9489 16.5 20.75C16.5 20.5511 16.421 20.3603 16.2803 20.2197C16.1397 20.079 15.9489 20 15.75 20H13.5C12.7365 20 12.015 20.0855 11.3115 20.2085C11.8995 11.2235 18.729 2 30.75 2C43.632 2 49.5 12.1085 49.5 21.5V23.75C49.5 23.9489 49.579 24.1397 49.7197 24.2803C49.8603 24.421 50.0511 24.5 50.25 24.5C50.4489 24.5 50.6397 24.421 50.7803 24.2803C50.921 24.1397 51 23.9489 51 23.75V21.4865C55.5285 21.983 61.5 26.843 61.5 34.25C61.5 39.989 55.9635 47 49.5 47H38.25C33.393 47 31.5 45.107 31.5 40.25V19.6745L37.617 25.7795C37.6861 25.8512 37.7688 25.9085 37.8602 25.9479C37.9517 25.9873 38.05 26.0082 38.1496 26.0092C38.2492 26.0102 38.348 25.9913 38.4402 25.9537C38.5324 25.9162 38.6162 25.8606 38.6868 25.7903C38.7573 25.72 38.8131 25.6363 38.8509 25.5442C38.8888 25.4521 38.9079 25.3533 38.9072 25.2538C38.9064 25.1542 38.8859 25.0557 38.8467 24.9642C38.8075 24.8726 38.7505 24.7898 38.679 24.7205L31.9875 18.0425C31.0965 17.1545 30.405 17.1545 29.5155 18.0425L22.824 24.7205C22.6874 24.8619 22.6118 25.0514 22.6135 25.2481C22.6152 25.4447 22.6941 25.6328 22.8331 25.7719C22.9722 25.9109 23.1603 25.9898 23.3569 25.9915C23.5536 25.9932 23.743 25.9176 23.8845 25.781L30 19.6745V40.25C30 45.956 32.544 48.5 38.25 48.5H49.5C56.7705 48.5 63 40.664 63 34.25C63 26.4995 56.6655 20.438 50.937 19.982Z" fill="black"/>
</g>
<defs>
<clipPath id="clip0_3635_3341">
<rect width="63" height="48" fill="white" transform="translate(0 0.5)"/>
</clipPath>
</defs>
</svg>
